<svg width="60" height="43" viewBox="0 0 55 38" fill="none" xmlns="http://www.w3.org/2000/svg">
<path d="M27.1637 0.104073C26.9022 0.229801 26.8117 0.370617 26.8117 0.667335C26.8117 0.858442 26.8419 0.979141 26.9173 1.07972C27.1084 1.34124 27.2995 1.39153 28.2249 1.44685C29.5777 1.52229 30.5282 1.7838 31.8408 2.42753C34.1492 3.56914 35.9698 5.66629 36.7694 8.10542C37.0158 8.85476 37.1818 9.72983 37.2522 10.625C37.2824 11.0827 37.3377 11.4347 37.3829 11.5202C37.4735 11.7012 37.8054 11.8521 38.092 11.8571C38.2681 11.8571 38.3385 11.827 38.4592 11.7113L38.605 11.5655V10.8916C38.6 8.1205 37.4383 5.36454 35.4266 3.34786C33.7519 1.67316 31.6497 0.601957 29.2307 0.189568C28.4261 0.0537818 27.3699 0.00851961 27.1637 0.104073Z" fill="black"/>
<path d="M26.862 5.97811C25.1471 6.15915 23.5528 7.26556 22.7783 8.81453C21.9234 10.5144 22.0541 12.6015 23.1153 14.1756C23.6283 14.935 24.5888 15.7095 25.4639 16.0665C26.6659 16.5544 28.2299 16.5644 29.4269 16.0867C31.3279 15.3222 32.6002 13.5419 32.7058 11.48C32.8517 8.64354 30.8149 6.26477 27.9885 5.97308C27.4303 5.91776 27.4403 5.91776 26.862 5.97811ZM28.3305 7.41141C30.3371 7.859 31.6799 9.88574 31.2977 11.8924C31.1368 12.7222 30.8249 13.2955 30.1812 13.9493C29.794 14.3365 29.6532 14.4421 29.2508 14.6433C28.6121 14.9551 28.1142 15.0758 27.4655 15.0758C25.7103 15.0758 24.1966 13.9141 23.7238 12.2092C23.1002 9.9662 24.6542 7.65281 26.9978 7.33094C27.375 7.28065 27.898 7.31082 28.3305 7.41141Z" fill="black"/>
<path d="M16.5975 10.5999C16.3712 10.6904 16.3259 10.8362 16.3259 11.4649C16.3259 12.9837 16.7333 14.6835 17.4575 16.1571C18.5589 18.4101 20.3794 20.1904 22.7381 21.3169C24.1513 21.9908 25.3381 22.2775 27.0229 22.3479L27.7823 22.3831L27.9432 22.2222C28.0991 22.0663 28.1041 22.0512 28.084 21.7042C28.0689 21.3823 28.0488 21.3371 27.908 21.2113C27.7773 21.0957 27.6867 21.0655 27.4051 21.0403C25.9366 20.9196 25.3331 20.809 24.3977 20.4972C22.2201 19.778 20.3341 18.2844 19.1272 16.3331C18.3225 15.0305 17.8045 13.4162 17.6838 11.827C17.6134 10.9268 17.5581 10.7507 17.3318 10.6401C17.1457 10.5445 16.7785 10.5244 16.5975 10.5999Z" fill="black"/>
<path d="M49.4427 27.3016C47.6574 27.5279 46.2844 28.584 45.9173 30.0123C45.867 30.2034 45.8066 30.3643 45.7815 30.3643C45.7513 30.3643 45.7513 29.8413 45.7714 29.1171L45.8066 27.8749L45.9575 27.714C46.043 27.6285 46.0933 27.5329 46.0782 27.5028C46.0531 27.4676 45.6709 27.4474 44.9115 27.4474C43.6592 27.4474 43.6542 27.4525 43.961 27.7492L44.137 27.9202V31.6267C44.137 35.5896 44.147 35.4136 43.8855 35.4538C43.7749 35.4689 43.7598 35.4991 43.7447 35.6852L43.7296 35.8964L44.9517 35.8863L46.1738 35.8712L46.1889 35.7355C46.1989 35.65 46.1687 35.5695 46.1034 35.5091C46.043 35.4588 45.9575 35.3834 45.9072 35.3381C45.8217 35.2677 45.8117 35.132 45.7815 33.8596C45.7664 33.0901 45.7664 32.4363 45.7815 32.4062C45.8016 32.381 45.8418 32.5017 45.8771 32.6777C46.0631 33.583 46.7924 34.5536 47.7479 35.1822C48.1754 35.4588 48.8644 35.7455 49.1108 35.7455C49.3773 35.7455 49.322 35.8159 49.0052 35.8813C48.4872 35.9869 47.6574 36.2585 47.6574 36.3289C47.6574 36.4295 47.7529 36.4345 48.1301 36.3339C48.4117 36.2635 48.6129 36.2484 49.0655 36.2635C49.9708 36.2937 50.4184 36.4848 51.8366 37.4403C52.5356 37.908 52.6513 37.9684 52.8977 37.9935C53.5465 38.0589 54.0896 37.6214 54.1097 37.0179L54.1198 36.7765L53.7426 36.7362C53.5364 36.7161 53.1743 36.6256 52.9379 36.5401C51.7913 36.1277 51.3588 35.997 50.9967 35.9316C50.7151 35.8813 50.6346 35.8511 50.7251 35.836C50.7955 35.8159 51.0269 35.7656 51.2381 35.7204C52.0226 35.5494 52.943 34.9811 53.5314 34.2971C55.025 32.5772 54.9898 30.1531 53.4559 28.6444C53.0234 28.2119 52.7971 28.0509 52.3043 27.8045C51.7812 27.543 51.2029 27.367 50.6497 27.3016C50.1418 27.2413 49.9456 27.2413 49.4427 27.3016ZM50.3429 27.548C50.7553 27.6788 51.3487 28.0711 51.6706 28.4281C52.1283 28.9461 52.6111 30.0374 52.7619 30.9075C52.9027 31.7021 52.8374 32.6375 52.5809 33.5075C52.3143 34.4078 51.7662 35.147 51.1375 35.4538C50.8408 35.5997 50.7553 35.6198 50.3731 35.6198C49.9959 35.6198 49.9054 35.5997 49.6187 35.4639C48.8644 35.1018 48.3162 34.3726 47.8937 33.1454C47.5719 32.2352 47.4813 31.6669 47.4813 30.6409C47.4813 29.8514 47.4964 29.6854 47.597 29.3434C47.8686 28.398 48.3816 27.7743 49.1058 27.5179C49.3874 27.4173 49.9607 27.4324 50.3429 27.548Z" fill="black"/>
<path d="M0.333313 27.5179C0.333313 27.5581 0.393663 27.6034 0.474129 27.6235C0.549566 27.6386 0.660206 27.6889 0.720556 27.7391C0.785935 27.7894 1.14803 28.5337 1.62077 29.5848C3.84867 34.5486 4.44714 35.821 4.53766 35.821C4.60807 35.821 4.78409 35.484 5.32221 34.3122C5.70442 33.4824 6.01623 32.7733 6.01623 32.7381C6.01623 32.6124 5.91565 32.6828 5.81506 32.8789C5.59881 33.2963 5.33227 33.3919 5.06572 33.1404C4.96514 33.0499 4.6986 32.5068 4.2158 31.4456C2.81267 28.3326 2.59139 27.8146 2.6266 27.7291C2.64671 27.6788 2.71209 27.6184 2.77747 27.5933C3.0943 27.4776 2.86296 27.4475 1.61574 27.4475C0.539507 27.4475 0.333313 27.4575 0.333313 27.5179Z" fill="black"/>
<path d="M7.07233 27.5229C7.07233 27.5631 7.15279 27.6184 7.26343 27.6436C7.50483 27.709 7.72108 27.9353 7.75629 28.1566C7.77138 28.2521 7.74623 28.4533 7.70097 28.6041C7.56015 29.092 7.55512 29.1071 7.64565 29.1071C7.69091 29.1071 7.72611 29.0769 7.72611 29.0417C7.72611 28.8908 8.03289 28.3527 8.24411 28.1415C8.54083 27.8498 8.87778 27.6838 9.24491 27.6587C9.62209 27.6285 9.63718 27.5229 9.27509 27.4776C9.12924 27.4625 8.57101 27.4474 8.04295 27.4474C7.2232 27.4474 7.07233 27.4575 7.07233 27.5229Z" fill="black"/>
<path d="M10.291 27.5078C10.291 27.543 10.3664 27.6436 10.4569 27.7391L10.6178 27.9051L10.6329 31.6065C10.643 34.3223 10.6279 35.3231 10.5877 35.3734C10.5575 35.4136 10.467 35.4438 10.3865 35.4438C10.2457 35.4438 10.2407 35.4538 10.2407 35.6701V35.8964H11.4175C12.715 35.8964 12.7251 35.8914 12.6949 35.5846C12.6848 35.4488 12.6546 35.4136 12.5541 35.4035C12.4837 35.3935 12.3982 35.3482 12.368 35.303C12.3177 35.2426 12.3026 34.4128 12.3026 31.5462V27.8699L12.4786 27.6989C12.5742 27.6034 12.6546 27.5078 12.6546 27.4877C12.6546 27.4676 12.1216 27.4475 11.4728 27.4475C10.5877 27.4475 10.291 27.4625 10.291 27.5078Z" fill="black"/>
<path d="M15.7275 27.5229C14.6965 27.7542 13.8516 28.4935 13.6303 29.3585C13.5348 29.7458 13.5649 30.0877 13.7359 30.4549C14.0477 31.1237 14.264 31.2796 17.2563 33.0046C18.237 33.5679 18.4935 33.759 18.6947 34.0809C19.0517 34.6441 18.6846 35.3382 17.9101 35.5745C16.9194 35.8712 15.7174 35.5544 15.0133 34.8C14.5607 34.3223 14.264 33.6534 14.264 33.1203C14.264 32.9694 14.2439 32.9292 14.1735 32.9292C14.088 32.9292 14.0528 33.075 13.8667 34.1965C13.6555 35.489 13.6203 35.8461 13.7108 35.8461C13.741 35.8461 13.7611 35.8008 13.7611 35.7505C13.7611 35.6952 13.8164 35.5896 13.8818 35.5091C14.0025 35.3734 14.0075 35.3683 14.2439 35.4387C15.0234 35.655 15.2547 35.7053 15.823 35.7757C17.025 35.9266 17.8598 35.8562 18.2873 35.5745C18.9813 35.1169 19.4239 34.619 19.5697 34.1211C19.7206 33.6031 19.625 32.9594 19.3233 32.4816C19.0266 32.0139 18.76 31.8278 16.8993 30.7868C15.5263 30.0173 15.0485 29.7256 14.8423 29.5245C14.2187 28.916 14.2992 28.3024 15.0636 27.9202C15.7023 27.5983 16.4969 27.5581 17.0552 27.8246C17.7844 28.1716 18.3476 29.0719 18.4784 30.0877C18.5036 30.304 18.5337 30.3895 18.589 30.3895C18.6494 30.3895 18.7148 30.1028 18.9009 29.0568C19.0316 28.3225 19.1372 27.6738 19.1422 27.6084C19.1422 27.4424 19.0618 27.4726 18.9562 27.6838C18.9059 27.7844 18.8254 27.89 18.7802 27.9202C18.6846 27.9755 18.7248 27.9856 17.6838 27.6738C16.9395 27.4525 16.2606 27.4022 15.7275 27.5229Z" fill="black"/>
<path d="M20.6007 27.5179C20.6007 27.5581 20.646 27.6084 20.7013 27.6235C20.9477 27.6989 20.9427 27.6788 20.9678 30.9175C20.9829 33.0197 21.0081 34.0457 21.0533 34.2317C21.2344 35.0565 21.8027 35.6148 22.6727 35.8209C23.0097 35.9014 24.1563 35.9215 24.5737 35.8511L24.8 35.8159L24.453 35.7505C23.4723 35.5594 22.8487 34.9308 22.7129 34.0105C22.6878 33.8043 22.6627 32.4313 22.6627 30.7516V27.8397L22.8135 27.6989C22.899 27.6235 22.9644 27.5329 22.9644 27.5028C22.9644 27.4625 22.6073 27.4474 21.7826 27.4474C20.7918 27.4474 20.6007 27.4575 20.6007 27.5179Z" fill="black"/>
<path d="M25.7807 27.5229C25.7807 27.5631 25.826 27.5983 25.8813 27.5983C26.1831 27.5983 26.5854 27.89 26.7413 28.227C26.8268 28.413 26.8368 28.6042 26.8368 31.0433C26.8368 32.5017 26.8117 33.8143 26.7866 34.0105C26.6709 34.8302 26.1529 35.4287 25.318 35.7103C25.1672 35.7606 25.2124 35.8612 25.3683 35.821C25.8914 35.6952 26.4747 35.2376 26.7011 34.7749C26.9123 34.3374 26.9374 34.0155 26.9374 31.5462C26.9374 29.0719 26.9726 28.5187 27.1436 28.1666C27.2794 27.89 27.5761 27.6637 27.8728 27.6184C28.0137 27.5983 28.0941 27.5631 28.0941 27.5179C28.0941 27.4575 27.8879 27.4475 26.9374 27.4475C25.9417 27.4475 25.7807 27.4575 25.7807 27.5229Z" fill="black"/>
<path d="M30.9607 27.4877C30.9607 27.5078 31.3077 28.5086 31.7352 29.7106C32.1576 30.9125 32.4896 31.9033 32.4644 31.9133C32.4393 31.9234 32.3135 31.8982 32.1828 31.853C31.6698 31.692 31.3228 31.6518 30.5081 31.6518C29.9197 31.6518 29.5475 31.677 29.2257 31.7373C28.597 31.863 27.7924 32.0793 27.7924 32.1296C27.7924 32.1497 28.1746 32.1547 28.6423 32.1396C29.5978 32.1044 30.1812 32.1648 30.8551 32.3609C31.9364 32.6727 32.9221 33.3315 33.259 33.9702C33.4501 34.3273 33.8474 35.5192 33.8022 35.5946C33.7821 35.6248 33.7116 35.6701 33.6463 35.6952C33.3345 35.8159 33.5608 35.8461 34.7577 35.8461C35.4568 35.8461 35.9898 35.826 35.9898 35.8008C35.9898 35.7757 35.9094 35.7103 35.8088 35.65C35.6831 35.5745 35.5925 35.4589 35.492 35.2325C35.4115 35.0565 34.7426 33.2611 33.9983 31.2444C33.259 29.2227 32.6304 27.543 32.6052 27.5078C32.5499 27.4374 30.9607 27.4173 30.9607 27.4877Z" fill="black"/>
<path d="M36.1759 27.4827C36.1558 27.4978 36.2312 27.5983 36.3419 27.6989L36.543 27.885V31.687V35.489L36.362 35.6349C36.2614 35.7204 36.196 35.8109 36.2111 35.8411C36.2564 35.9065 42.5579 35.9215 42.5981 35.8511C42.6233 35.8159 42.4724 34.3273 42.397 33.8948C42.3567 33.6383 42.2913 33.7037 42.2561 34.0407C42.1556 34.9107 41.6979 35.4387 40.8681 35.65C40.672 35.7003 40.2596 35.7204 39.4599 35.7204H38.3284L38.3133 31.8027C38.3032 27.533 38.2932 27.6939 38.5798 27.6185C38.6503 27.6034 38.7056 27.5581 38.7056 27.5179C38.7056 27.4575 38.4893 27.4475 37.4583 27.4475C36.7694 27.4475 36.191 27.4626 36.1759 27.4827Z" fill="black"/>
<path d="M29.3061 34.5084C29.0346 34.9911 28.4059 35.5544 27.9835 35.6902C27.8779 35.7254 27.7924 35.7757 27.7924 35.8008C27.7924 35.826 28.2953 35.8461 28.9993 35.8461C29.6632 35.8461 30.2063 35.826 30.2063 35.8059C30.2063 35.7807 30.1158 35.7355 30.0102 35.7003C29.5878 35.5745 29.3715 35.1068 29.4972 34.5788C29.5626 34.277 29.5676 34.2368 29.5073 34.2368C29.4821 34.2368 29.3916 34.3575 29.3061 34.5084Z" fill="black"/>
</svg>
